<svg class="mega-icons stroke-dark" id="tag" viewBox="0 0 30 31" xmlns="http://www.w3.org/2000/svg">
        <path fill-rule="evenodd" clip-rule="evenodd" d="M24.9093 1.04004C22.3026 1.04004 20.1783 3.16434 20.1783 5.77108C20.1783 6.95386 20.6218 8.09388 21.4203 8.96625C21.514 9.06878 21.6444 9.1297 21.7831 9.13604C21.9217 9.14238 22.057 9.09304 22.1593 8.99932C22.2616 8.90561 22.3225 8.77495 22.3283 8.63631C22.3341 8.49767 22.2844 8.36233 22.1904 8.26034C21.5678 7.58035 21.2227 6.69278 21.2227 5.77109C21.2227 3.72892 22.8671 2.08445 24.9093 2.08445C26.9515 2.08445 28.5959 3.72892 28.5959 5.77109C28.5959 6.66414 28.2715 7.52719 27.6833 8.19916H27.683C27.5904 8.30336 27.543 8.44008 27.5518 8.57927C27.5603 8.71819 27.6243 8.84801 27.7293 8.9398C27.8343 9.03159 27.9713 9.07734 28.1105 9.06742C28.2494 9.0575 28.3787 8.99245 28.4694 8.88661C29.2241 8.02439 29.64 6.91691 29.64 5.7711C29.64 3.16443 27.5157 1.04006 24.909 1.04006L24.9093 1.04004ZM16.0642 3.65087C15.9256 3.65087 15.793 3.706 15.6949 3.80385L0.552795 18.946C0.349101 19.15 0.349101 19.4804 0.552795 19.6844L10.9954 30.1271H10.9957C11.1994 30.331 11.5299 30.331 11.7338 30.1271L26.8759 14.9849H26.8762C26.9741 14.8871 27.0292 14.7542 27.0292 14.6158V4.17251C27.0292 3.8842 26.7952 3.65046 26.5069 3.65046H23.374C23.2343 3.64825 23.0995 3.70255 22.9997 3.80068C22.9002 3.8988 22.844 4.03277 22.844 4.17251C22.844 4.31254 22.9002 4.44649 22.9997 4.54462C23.0995 4.64274 23.2343 4.69677 23.374 4.69484H25.9848V14.3994L11.3649 29.0193L1.66039 19.3148L16.2803 4.69484H18.6748C18.8148 4.69677 18.9496 4.64275 19.0491 4.54462C19.1489 4.44649 19.2048 4.31253 19.2048 4.17251C19.2048 4.03276 19.1489 3.8988 19.0491 3.80068C18.9496 3.70255 18.8148 3.64825 18.6748 3.65046L16.0642 3.65087ZM22.8185 7.17846C22.6059 7.18976 22.4218 7.32924 22.3526 7.53045C22.2837 7.73167 22.3435 7.95466 22.5042 8.09413C22.7256 8.29232 22.8521 8.57512 22.8521 8.87223C22.8521 9.4552 22.3907 9.91664 21.8077 9.91664C21.2247 9.91664 20.7633 9.45522 20.7633 8.87223H20.7636C20.7655 8.73248 20.7112 8.5977 20.6131 8.49819C20.5149 8.39868 20.3812 8.34273 20.2412 8.34273C20.1015 8.34273 19.9675 8.39869 19.8694 8.49819C19.7713 8.5977 19.7172 8.73248 19.7192 8.87223C19.7192 10.0194 20.6605 10.9608 21.8077 10.9608C22.9549 10.9608 23.8962 10.0194 23.8962 8.87223C23.8962 8.27878 23.6429 7.7121 23.2008 7.31596C23.1104 7.23272 22.9935 7.18393 22.8706 7.17815C22.8532 7.17732 22.8358 7.17732 22.8185 7.17815L22.8185 7.17846ZM14.5739 12.4183C14.3457 12.4305 14.1516 12.5901 14.0957 12.8119L11.8021 21.3712C11.7629 21.506 11.7798 21.6507 11.8489 21.7728C11.9179 21.8952 12.0331 21.9845 12.1684 22.0209C12.304 22.0573 12.4485 22.0375 12.5695 21.9661C12.6902 21.8947 12.7773 21.7775 12.8106 21.6414L15.1042 13.0821C15.1502 12.92 15.1152 12.7455 15.0099 12.6138C14.9047 12.482 14.7423 12.4092 14.5739 12.4183L14.5739 12.4183ZM17.2479 14.7436C16.9463 14.7218 16.6365 14.7855 16.3576 14.9465C15.6136 15.3759 15.3551 16.3423 15.7845 17.0859C16.214 17.8299 17.1803 18.0896 17.924 17.6601C18.6679 17.2307 18.9265 16.2634 18.497 15.5195C18.2286 15.0545 17.7503 14.7797 17.2479 14.7433V14.7436ZM17.0775 15.7828C17.2796 15.756 17.4822 15.8506 17.5924 16.0419C17.7396 16.2971 17.6569 16.6086 17.4017 16.7558C17.1467 16.903 16.8361 16.8192 16.6888 16.5642C16.5417 16.309 16.6243 15.9986 16.8796 15.8514C16.9433 15.8144 17.0102 15.7918 17.0775 15.783L17.0775 15.7828ZM9.87375 16.5896C9.57221 16.5678 9.26129 16.6323 8.98233 16.7936C8.23839 17.223 7.97985 18.1894 8.40928 18.933C8.83872 19.677 9.80509 19.9355 10.5488 19.5061C11.2927 19.0767 11.5512 18.1103 11.1218 17.3666C10.8533 16.9016 10.3759 16.626 9.87347 16.5896L9.87375 16.5896ZM9.70341 17.6298C9.90545 17.6031 10.108 17.6977 10.2183 17.8889C10.3655 18.1442 10.2817 18.4546 10.0265 18.6018C9.77149 18.749 9.46085 18.666 9.31363 18.411C9.16644 18.1561 9.24913 17.8443 9.50436 17.6971C9.56804 17.6605 9.63584 17.6387 9.7031 17.6299L9.70341 17.6298Z" stroke-width="0.5"/>
</svg>