<svg class="fill-icon" id="course-1" viewBox="0 0 26 22" xmlns="http://www.w3.org/2000/svg">
        <path d="M18.8839 17.7888C17.242 19.1845 15.1621 19.9509 13 19.9509C7.96431 19.9509 3.88687 15.8732 3.88687 10.8377V10.0989H5.17311C5.50155 10.0989 5.77514 9.93482 5.93949 9.661C6.10359 9.38741 6.07628 9.05897 5.91217 8.78517L3.7501 5.41903C3.42166 4.92648 2.60065 4.92648 2.29952 5.41903L0.137676 8.75784C-0.0264292 9.03143 -0.0539706 9.35987 0.110363 9.63367C0.274468 9.90726 0.548284 10.0716 0.876743 10.0716H2.16298V10.8377C2.16298 16.8037 7.03432 21.6753 13.0005 21.6753C15.573 21.6753 18.0362 20.7721 20.0067 19.1028C20.3624 18.8016 20.4173 18.2544 20.1162 17.8987C19.7875 17.5427 19.2401 17.4881 18.8844 17.789L18.8839 17.7888Z"/>
        <path d="M25.8901 12.0418C25.726 11.7682 25.4522 11.6039 25.1238 11.6039H23.8375V10.8375C23.8375 4.87151 18.9662 0 13 0C10.4275 0 7.96432 0.903165 5.99382 2.57248C5.63806 2.87361 5.58321 3.4208 5.88434 3.77655C6.18546 4.1323 6.73266 4.18716 7.0884 3.88602C8.73038 2.49033 10.8103 1.72395 12.9724 1.72395C18.008 1.72395 22.0855 5.80157 22.0855 10.8371V11.5759H20.7992C20.4708 11.5759 20.1972 11.74 20.0329 12.0138C19.8688 12.2874 19.8961 12.6159 20.0602 12.8897L22.2222 16.2558C22.3863 16.5021 22.6602 16.6664 22.9611 16.6664C23.2622 16.6664 23.5358 16.5296 23.6999 16.2558L25.8624 12.9172C26.0265 12.6436 26.0538 12.3152 25.8897 12.0416L25.8901 12.0418Z"/>
        <path d="M18.6927 10.8375C18.6927 7.71768 16.1475 5.1452 13.0004 5.1452C9.88052 5.1452 7.30804 7.69035 7.30804 10.8375C7.30804 13.9574 9.85319 16.5299 13.0004 16.5299C16.12 16.5301 18.6927 13.9574 18.6927 10.8375ZM11.9327 12.6439L10.4548 11.166C10.0991 10.8102 10.0991 10.2628 10.4548 9.90709C10.8106 9.55134 11.358 9.55133 11.7137 9.90709L12.562 10.7554L14.3135 9.00392C14.6693 8.64817 15.2167 8.64817 15.5724 9.00392C15.9282 9.35967 15.9282 9.90709 15.5724 10.2628L13.2189 12.6163C13.0548 12.7805 12.8083 12.8626 12.5896 12.8626C12.3157 12.8902 12.097 12.808 11.9327 12.6439V12.6439Z"/>
</svg>