<svg class="stroke-icon svg-fill" id="customers" viewBox="0 0 25 23" xmlns="http://www.w3.org/2000/svg">
      <path d="M12.5 9.10742C14.8424 9.10742 16.748 7.20176 16.748 4.85938C16.748 2.51699 14.8424 0.611328 12.5 0.611328C10.1576 0.611328 8.25195 2.51699 8.25195 4.85938C8.25195 7.20176 10.1576 9.10742 12.5 9.10742ZM12.5 2.07617C14.0347 2.07617 15.2832 3.32471 15.2832 4.85938C15.2832 6.39404 14.0347 7.64258 12.5 7.64258C10.9653 7.64258 9.7168 6.39404 9.7168 4.85938C9.7168 3.32471 10.9653 2.07617 12.5 2.07617Z" />
      <path d="M21.0938 9.10742C22.5746 9.10742 23.7793 7.90269 23.7793 6.42188C23.7793 4.94106 22.5746 3.73633 21.0938 3.73633C19.6129 3.73633 18.4082 4.94106 18.4082 6.42188C18.4082 7.90269 19.6129 9.10742 21.0938 9.10742ZM21.0938 5.20117C21.7668 5.20117 22.3145 5.74878 22.3145 6.42188C22.3145 7.09497 21.7668 7.64258 21.0938 7.64258C20.4207 7.64258 19.873 7.09497 19.873 6.42188C19.873 5.74878 20.4207 5.20117 21.0938 5.20117Z" />
      <path d="M21.6846 10.7676H20.5518C19.2168 10.7676 18.0645 11.5562 17.5394 12.6891C16.4583 11.5089 14.9054 10.7676 13.1826 10.7676H11.8175C10.0946 10.7676 8.54175 11.5089 7.46065 12.6891C6.9355 11.5562 5.78315 10.7676 4.44824 10.7676H3.31543C1.4873 10.7676 0 12.2459 0 14.063V19.3955C0 20.1844 0.644238 20.8262 1.43613 20.8262H5.91499C5.99009 21.7002 6.72505 22.3887 7.61826 22.3887H17.3818C18.275 22.3887 19.0099 21.7002 19.0851 20.8262H23.5127C24.3329 20.8262 25 20.1616 25 19.3447V14.063C25 12.2459 23.5127 10.7676 21.6846 10.7676V10.7676ZM1.46484 14.063C1.46484 13.0536 2.29502 12.2324 3.31543 12.2324H4.44824C5.46865 12.2324 6.29883 13.0536 6.29883 14.063V14.5645C5.8063 15.8469 5.9082 16.6155 5.9082 19.3613H1.46484V14.063ZM17.627 20.6787C17.627 20.8139 17.517 20.9238 17.3818 20.9238H7.61821C7.48301 20.9238 7.37305 20.8138 7.37305 20.6787V16.6769C7.37305 14.2262 9.3668 12.2324 11.8174 12.2324H13.1825C15.6332 12.2324 17.627 14.2262 17.627 16.6768V20.6787ZM23.5352 19.3447C23.5352 19.37 23.8082 19.3613 19.0918 19.3613C19.0918 16.5952 19.1929 15.8448 18.7012 14.5645V14.063C18.7012 13.0536 19.5313 12.2324 20.5518 12.2324H21.6846C22.705 12.2324 23.5352 13.0536 23.5352 14.063V19.3447Z" />
      <path d="M3.90625 9.10742C5.38706 9.10742 6.5918 7.90269 6.5918 6.42188C6.5918 4.94106 5.38706 3.73633 3.90625 3.73633C2.42544 3.73633 1.2207 4.94106 1.2207 6.42188C1.2207 7.90269 2.42544 9.10742 3.90625 9.10742ZM3.90625 5.20117C4.57935 5.20117 5.12695 5.74878 5.12695 6.42188C5.12695 7.09497 4.57935 7.64258 3.90625 7.64258C3.23315 7.64258 2.68555 7.09497 2.68555 6.42188C2.68555 5.74878 3.23315 5.20117 3.90625 5.20117Z" />
</svg>