<svg class="stroke-icon svg-fill" id="new-order" viewBox="0 0 22 25" stroke="none" xmlns="http://www.w3.org/2000/svg">
        <path d="M20.3167 25C14.0315 25 7.75251 25 1.46735 25C0.299584 24.572 0.00611396 24.1379 0.00611396 22.8723C0.00611396 17.8039 0.00611396 12.7354 0 7.66691C0 7.28173 0.0917095 6.93935 0.287356 6.60308C1.4001 4.68941 2.50673 2.77574 3.60113 0.855955C3.93128 0.275128 4.40205 0 5.07459 0C8.95084 0.00611396 12.821 0.00611396 16.6972 0C17.3759 0 17.8528 0.275128 18.189 0.862069C19.3018 2.80631 20.4329 4.75055 21.5578 6.68868C21.7107 6.95158 21.7841 7.21448 21.7841 7.52018C21.7779 10.1675 21.7779 12.8088 21.7779 15.4561C21.7779 18.0179 21.7779 20.5796 21.7779 23.1475C21.7779 23.6488 21.6434 24.0951 21.3011 24.4681C21.0382 24.7554 20.6835 24.8899 20.3167 25ZM1.46735 7.67914C1.46735 7.78919 1.46735 7.86867 1.46735 7.94815C1.46735 12.9922 1.46735 18.0362 1.46735 23.0802C1.46735 23.4899 1.52238 23.5388 1.93201 23.5388C7.90536 23.5388 13.8787 23.5388 19.8459 23.5388C20.2556 23.5388 20.3106 23.4837 20.3106 23.0741C20.3106 18.0301 20.3106 12.9861 20.3106 7.94204C20.3106 7.85644 20.3106 7.77085 20.3106 7.67303C14.0193 7.67914 7.75862 7.67914 1.46735 7.67914ZM10.1614 6.18733C10.1614 4.60993 10.1614 3.05087 10.1614 1.47958C10.1125 1.47347 10.0819 1.46735 10.0452 1.46735C8.39447 1.46735 6.7437 1.46735 5.09293 1.46124C4.93397 1.46124 4.88506 1.54683 4.82392 1.65688C4.00465 3.09367 3.17315 4.53045 2.34776 5.96112C2.31108 6.02837 2.28051 6.10174 2.23771 6.18733C4.89729 6.18733 7.52629 6.18733 10.1614 6.18733ZM19.5525 6.18733C19.5219 6.12619 19.5097 6.08339 19.4852 6.0406C18.6293 4.56102 17.7794 3.08755 16.9173 1.61409C16.8745 1.54072 16.74 1.47347 16.6544 1.47347C15.0587 1.46735 13.4629 1.46735 11.8733 1.46735C11.8061 1.46735 11.7327 1.47958 11.6716 1.47958C11.6716 3.0631 11.6716 4.61604 11.6716 6.18122C14.3067 6.18733 16.9173 6.18733 19.5525 6.18733Z" />
        <path d="M9.9474 16.5077C10.0147 16.4099 10.0513 16.3243 10.1125 16.257C11.0968 15.2666 12.0812 14.27 13.0839 13.2918C13.2306 13.1511 13.4446 13.0289 13.6402 12.9922C13.9459 12.9249 14.1966 13.09 14.3433 13.3651C14.484 13.6341 14.4595 13.897 14.2761 14.1477C14.2272 14.215 14.1721 14.27 14.111 14.325C12.9188 15.5172 11.7327 16.7033 10.5405 17.8956C10.0941 18.3419 9.72118 18.3419 9.28098 17.9017C8.73072 17.3514 8.17435 16.8012 7.62409 16.2448C7.38565 16.0064 7.33674 15.6701 7.47736 15.3888C7.61187 15.1198 7.90534 14.9364 8.19881 14.9975C8.37611 15.0342 8.56564 15.1321 8.70015 15.2604C9.10979 15.6395 9.48885 16.043 9.9474 16.5077Z" />
</svg>