<svg class="stroke-icon svg-fill" id="profit" viewBox="0 0 26 25" xmlns="http://www.w3.org/2000/svg">
        <path d="M0.414612 15.2724C0.610207 14.8486 0.942718 14.7247 1.39911 14.7313C3.47893 14.7443 5.56528 14.7378 7.64511 14.7378C7.78203 14.7378 7.87982 14.7247 7.95806 14.5813C9.37938 12.0516 11.1397 9.78923 13.3891 7.93107C13.4086 7.91803 13.4217 7.89195 13.4412 7.86588C12.9979 6.96614 12.548 6.0664 12.1047 5.16666C11.6874 4.32561 11.2767 3.47151 10.8463 2.63697C10.6573 2.25882 10.6964 1.94587 10.9637 1.62639C11.4005 1.11785 11.883 0.661458 12.4698 0.328947C13.2913 -0.127442 14.1063 -0.107882 14.8952 0.381105C15.2277 0.58322 15.5276 0.830974 15.8405 1.05265C16.1274 0.844014 16.4208 0.60278 16.7338 0.407185C17.5553 -0.114402 18.3963 -0.133962 19.2439 0.348506C19.8633 0.700577 20.3653 1.18305 20.8021 1.73723C21.0238 2.0241 20.9912 2.3175 20.8347 2.63045C20.0067 4.29301 19.1787 5.96208 18.3572 7.63116C18.3181 7.7094 18.279 7.79416 18.2333 7.88543C18.292 7.93759 18.3507 7.99627 18.4094 8.04843C21.0042 10.3695 23.0645 13.1013 24.5119 16.2765C25.0465 17.45 25.4247 18.6758 25.4117 19.9928C25.3856 22.1117 24.3424 23.5787 22.3539 24.3154C21.265 24.7196 20.1371 24.8826 18.9896 24.9544C18.8527 24.9609 18.7158 24.987 18.5789 25C12.7045 25 6.83013 25 0.955758 25C0.714524 24.8826 0.531969 24.7066 0.421132 24.4654C0.414612 21.388 0.414612 18.3302 0.414612 15.2724ZM16.5316 8.87645C16.6034 9.30024 16.6425 9.73707 16.7468 10.1609C16.9228 10.865 17.2945 11.4713 17.803 11.9995C18.1225 12.332 18.116 12.7818 17.8095 13.0687C17.4966 13.3621 17.0467 13.336 16.7272 12.9905C16.5838 12.834 16.4404 12.6775 16.3165 12.508C16.1535 12.2928 16.0035 12.0646 15.8601 11.856C15.5471 12.2472 15.2538 12.6254 14.9408 13.0035C14.7582 13.2252 14.504 13.3165 14.2171 13.2513C13.6434 13.1209 13.4543 12.4493 13.8716 12.006C14.2627 11.5887 14.5757 11.1323 14.7843 10.6042C15.006 10.0435 15.1234 9.45672 15.1038 8.85037C14.6539 8.79169 14.6279 8.79169 14.2758 9.0916C12.3915 10.6564 10.892 12.5471 9.6141 14.6269C9.60106 14.653 9.59454 14.6856 9.5815 14.7313C9.68582 14.7313 9.77709 14.7313 9.86185 14.7313C11.8048 14.7313 13.7477 14.7313 15.6971 14.7313C16.2969 14.7313 16.5708 15.0051 16.5708 15.6114C16.5708 18.1477 16.5708 20.6839 16.5708 23.2266C16.5708 23.3179 16.5708 23.4157 16.5708 23.5656C17.6857 23.507 18.7679 23.4744 19.8437 23.3896C20.6131 23.3309 21.3694 23.1549 22.08 22.8419C23.1362 22.3725 23.7687 21.5901 23.9056 20.4166C23.9969 19.6537 23.8795 18.9235 23.6578 18.2063C23.2275 16.772 22.5299 15.4615 21.728 14.2032C20.5218 12.3189 19.1265 10.5912 17.4249 9.1242C17.1836 8.91557 16.9424 8.74605 16.5316 8.87645ZM15.0973 16.2178C10.6834 16.2178 6.28898 16.2178 1.90113 16.2178C1.90113 18.6627 1.90113 21.0881 1.90113 23.507C6.30854 23.507 10.6964 23.507 15.0973 23.507C15.0973 21.0751 15.0973 18.6562 15.0973 16.2178ZM15.834 7.36385C15.9579 7.36385 16.0818 7.34429 16.1991 7.37037C16.7012 7.46817 16.9424 7.24649 17.1575 6.7901C17.8356 5.3427 18.5593 3.91486 19.2765 2.48701C19.3482 2.3501 19.3547 2.25882 19.2243 2.16102C19.0157 2.00454 18.8266 1.82851 18.6115 1.67855C18.2203 1.3982 17.8095 1.3982 17.4379 1.69811C17.1054 1.95239 16.7794 2.23926 16.4925 2.55873C16.0557 3.0412 15.6189 3.0412 15.182 2.55221C14.9017 2.23926 14.5822 1.95891 14.2562 1.69811C13.865 1.38516 13.4478 1.38516 13.0435 1.68507C12.8479 1.82851 12.6654 1.9915 12.4698 2.14146C12.3394 2.23926 12.3263 2.33054 12.4046 2.48701C13.187 4.03873 13.9563 5.59697 14.7191 7.15521C14.7908 7.30517 14.8691 7.37689 15.0451 7.36385C15.3124 7.35081 15.5732 7.36385 15.834 7.36385Z"/>
        <path d="M8.53182 17.6653C9.74451 17.6718 10.7225 18.6693 10.716 19.8885C10.7029 21.0882 9.71191 22.0661 8.50574 22.0596C7.29305 22.0531 6.31508 21.0556 6.3216 19.8364C6.33464 18.6367 7.32565 17.6587 8.53182 17.6653ZM8.51226 19.1257C8.11455 19.1257 7.78856 19.4582 7.78856 19.8559C7.78856 20.2536 8.12107 20.5861 8.51226 20.5861C8.91649 20.5927 9.25552 20.2471 9.249 19.8429C9.24248 19.4517 8.90997 19.1257 8.51226 19.1257Z" />
        <path d="M4.8546 19.882C4.84157 20.2797 4.50253 20.5992 4.11134 20.5927C3.70711 20.5862 3.3746 20.2341 3.39416 19.8299C3.41372 19.4321 3.75927 19.1192 4.15046 19.1322C4.54817 19.1453 4.86764 19.4843 4.8546 19.882Z"/>
        <path d="M13.6434 19.8689C13.6368 20.2666 13.3043 20.5926 12.9131 20.5926C12.5089 20.5926 12.1699 20.2471 12.1829 19.8428C12.1894 19.4451 12.5285 19.1257 12.9262 19.1322C13.3174 19.1322 13.6434 19.4712 13.6434 19.8689Z"/>
    </svg>