<svg class='stroke-icon svg-fill' id="sale" viewBox="0 0 25 25" stroke="none" xmlns="http://www.w3.org/2000/svg">
        <path d="M11.9313 24.9878C11.2711 24.8839 10.776 24.511 10.3236 24.0464C9.9691 23.6796 9.58399 23.3373 9.22333 22.9766C8.98493 22.7382 8.71597 22.6588 8.37976 22.7138C7.76237 22.8116 7.14497 22.9033 6.52146 22.9828C5.15218 23.1539 4.15579 22.3898 3.92961 21.0144C3.83181 20.4215 3.72178 19.8285 3.62397 19.2356C3.56896 18.9116 3.40391 18.6915 3.11049 18.5448C2.54811 18.2575 1.98573 17.958 1.42946 17.6585C0.268021 17.0289 -0.117088 15.8368 0.451406 14.651C0.726484 14.0763 1.00156 13.5079 1.28887 12.9455C1.44169 12.6459 1.44169 12.3648 1.28887 12.0652C1.00767 11.509 0.732597 10.9466 0.463632 10.3781C-0.117088 9.16774 0.274134 7.96962 1.46002 7.33388C2.00407 7.04047 2.54811 6.74705 3.09827 6.46586C3.42225 6.30693 3.58118 6.06241 3.6362 5.71398C3.734 5.09047 3.83792 4.46085 3.96629 3.84345C4.22914 2.51085 5.26833 1.80787 6.60093 2.01571C7.21832 2.11352 7.84183 2.1991 8.45923 2.28468C8.74653 2.32746 8.98493 2.24189 9.19277 2.04016C9.65735 1.5817 10.128 1.12935 10.5926 0.68311C11.5462 -0.227703 12.8055 -0.227703 13.7591 0.68311C14.2175 1.12323 14.676 1.55725 15.1283 2.0096C15.3729 2.26022 15.654 2.33358 15.9964 2.27856C16.6138 2.18076 17.2312 2.08295 17.8547 2.0096C19.2056 1.85678 20.1775 2.5842 20.4159 3.92903C20.526 4.52198 20.6299 5.11492 20.7216 5.70787C20.7766 6.0563 20.9355 6.30081 21.2595 6.46586C21.8036 6.74094 22.3354 7.03435 22.8733 7.32166C24.0959 7.97573 24.481 9.16774 23.8758 10.4209C23.6191 10.9527 23.3685 11.4906 23.0934 12.0163C22.9222 12.3464 22.9161 12.6521 23.0873 12.9883C23.3746 13.5384 23.6374 14.0947 23.9003 14.651C24.4688 15.843 24.0837 17.035 22.9222 17.6646C22.3721 17.9641 21.8219 18.2636 21.2656 18.5387C20.9355 18.7038 20.7705 18.9544 20.7155 19.3151C20.6177 19.9325 20.5138 20.5499 20.3915 21.1611C20.1225 22.4815 19.0895 23.1906 17.763 22.9828C17.1456 22.885 16.5221 22.8055 15.9047 22.7138C15.6174 22.671 15.379 22.7505 15.1711 22.9522C14.7921 23.3251 14.4009 23.6796 14.0341 24.0586C13.5818 24.5232 13.0805 24.89 12.4265 25C12.2553 24.9878 12.0903 24.9878 11.9313 24.9878ZM18.1542 21.5707C18.5821 21.5829 18.8816 21.3567 18.9611 20.9655C19.065 20.4093 19.1873 19.8469 19.2545 19.2845C19.3707 18.2759 19.8597 17.5668 20.7949 17.1389C21.2901 16.9127 21.7608 16.6376 22.2376 16.3809C22.7205 16.1242 22.8427 15.7513 22.6043 15.2622C22.3293 14.6937 22.0542 14.1191 21.7669 13.5568C21.4062 12.8477 21.4062 12.1386 21.7669 11.4295C22.042 10.8793 22.3109 10.3231 22.5799 9.7668C22.8489 9.21664 22.7327 8.87432 22.1948 8.5809C21.6324 8.28137 21.0761 7.98796 20.5138 7.68843C19.8719 7.34611 19.4685 6.82652 19.334 6.1052C19.2117 5.42668 19.0956 4.74815 18.9672 4.06963C18.8755 3.59282 18.5454 3.36054 18.0686 3.42166C17.4512 3.50724 16.8277 3.59282 16.2103 3.69063C15.3912 3.82511 14.6882 3.61116 14.0953 3.0121C13.6674 2.57809 13.2211 2.16242 12.781 1.74063C12.3531 1.32496 11.9863 1.33107 11.5523 1.74674C11.0939 2.18687 10.6415 2.62699 10.1831 3.06712C9.66957 3.56226 9.05829 3.80066 8.33697 3.70285C7.65845 3.61116 6.98603 3.51947 6.30751 3.42166C5.80014 3.34831 5.46394 3.57448 5.37224 4.07574C5.26833 4.60756 5.15218 5.14549 5.09105 5.68342C4.98102 6.70426 4.47977 7.41946 3.53839 7.84736C3.04936 8.06742 2.58479 8.3425 2.1141 8.59313C1.61285 8.86209 1.4967 9.22275 1.74122 9.72401C2.01629 10.2925 2.29137 10.8671 2.57867 11.4295C2.93322 12.1325 2.93322 12.8293 2.57867 13.5384C2.29748 14.0947 2.02852 14.6632 1.75344 15.2256C1.49059 15.7635 1.60673 16.1119 2.13244 16.3931C2.68259 16.6865 3.23275 16.9861 3.78902 17.2734C4.50422 17.6463 4.90767 18.2331 5.03604 19.0278C5.13384 19.6451 5.24387 20.2625 5.36002 20.8738C5.46394 21.4118 5.78792 21.6257 6.32585 21.5462C6.94324 21.4546 7.56675 21.369 8.18415 21.2773C8.99105 21.1611 9.66957 21.3995 10.2442 21.968C10.6721 22.3898 11.1061 22.8055 11.5401 23.2273C11.9741 23.6429 12.3409 23.6491 12.7688 23.2334C13.1967 22.8238 13.6307 22.4204 14.0464 21.9925C14.6638 21.3567 15.3973 21.1428 16.2653 21.2956C16.9133 21.4118 17.5551 21.4851 18.1542 21.5707Z" />
        <path d="M17.6835 7.74958C17.6163 7.89629 17.5612 8.043 17.4879 8.1836C17.4512 8.25084 17.384 8.30585 17.3228 8.36087C14.2297 11.454 11.1366 14.5471 8.04354 17.6402C7.86626 17.8174 7.68288 17.9703 7.41391 17.9641C7.12661 17.958 6.91266 17.8297 6.78429 17.579C6.64981 17.3162 6.67426 17.0594 6.84542 16.821C6.90044 16.7477 6.96156 16.6866 7.02881 16.6254C10.1219 13.5323 13.215 10.4392 16.3081 7.34614C16.4854 7.16886 16.6688 7.02216 16.9377 7.02216C17.3289 7.02216 17.6468 7.34002 17.6835 7.74958Z" />
        <path d="M9.27833 11.2889C7.81125 11.2828 6.64369 10.0908 6.65592 8.6237C6.66814 7.18107 7.87237 5.99518 9.315 6.01352C10.7637 6.03185 11.9374 7.22386 11.9313 8.6726C11.9252 10.1152 10.7332 11.295 9.27833 11.2889ZM9.30278 7.45615C8.64259 7.45003 8.11077 7.96963 8.09244 8.63593C8.08021 9.29 8.63648 9.85238 9.29667 9.85238C9.94463 9.85238 10.4887 9.30834 10.4948 8.65426C10.4948 7.99408 9.96297 7.46226 9.30278 7.45615Z" />
        <path d="M15.0611 13.6973C16.5221 13.7034 17.6897 14.8771 17.6897 16.332C17.6897 17.7868 16.4854 18.9849 15.0367 18.9727C13.5879 18.9605 12.4082 17.7624 12.4143 16.3197C12.4204 14.871 13.6063 13.6973 15.0611 13.6973ZM15.0489 17.5301C15.7152 17.5362 16.2409 17.0166 16.2592 16.3503C16.2715 15.6962 15.7152 15.1338 15.055 15.1338C14.4009 15.1338 13.863 15.6779 13.8569 16.332C13.8569 16.9921 14.3887 17.524 15.0489 17.5301Z" />
    </svg>